<svg version="1.1" xmlns="http://www.w3.org/2000/svg" viewBox="0 0 783.1108607884976 550.308121163086" width="1566.2217215769952" height="1100.616242326172">
  <!-- svg-source:excalidraw -->
  
  <defs>
    <style class="style-fonts">
      @font-face {
        font-family: "Virgil";
        src: url("https://excalidraw.com/Virgil.woff2");
      }
      @font-face {
        font-family: "Cascadia";
        src: url("https://excalidraw.com/Cascadia.woff2");
      }
      @font-face {
        font-family: "Assistant";
        src: url("https://excalidraw.com/Assistant-Regular.woff2");
      }
    </style>
    
  </defs>
  <rect x="0" y="0" width="783.1108607884976" height="550.308121163086" fill="#ffffff"></rect><g stroke-linecap="round" transform="translate(264.6919534103551 259.1529822333984) rotate(0 74.60151672363281 35.787048339843764)"><path d="M17.89 0 C42.74 -1.08, 66.23 1.09, 131.31 0 M17.89 0 C45.1 0.28, 72.35 1.71, 131.31 0 M131.31 0 C144.19 -0.8, 147.77 4.81, 149.2 17.89 M131.31 0 C144.76 1.96, 148.16 5.3, 149.2 17.89 M149.2 17.89 C149.75 27.79, 147.49 40.26, 149.2 53.68 M149.2 17.89 C148.89 26.46, 149.26 33.61, 149.2 53.68 M149.2 53.68 C149.28 63.89, 142.5 70.11, 131.31 71.57 M149.2 53.68 C150.28 66.55, 143.81 73.32, 131.31 71.57 M131.31 71.57 C101.38 69.68, 71.51 73.3, 17.89 71.57 M131.31 71.57 C96.19 71.37, 60 71.59, 17.89 71.57 M17.89 71.57 C6.17 72.9, 0.76 65.71, 0 53.68 M17.89 71.57 C4.04 70.78, 0.39 67.41, 0 53.68 M0 53.68 C1.46 44.79, 0.11 32.9, 0 17.89 M0 53.68 C-0.63 43.78, 0.26 36.17, 0 17.89 M0 17.89 C0.17 7.71, 6.25 -1.18, 17.89 0 M0 17.89 C0.72 4.59, 4.96 0.06, 17.89 0" stroke="#1e1e1e" stroke-width="2" fill="none"></path></g><g transform="translate(286.8635156051793 282.44003057324215) rotate(0 52.429954528808594 12.5)"><text x="52.429954528808594" y="17.52" font-family="Virgil, Segoe UI Emoji" font-size="20px" fill="#1e1e1e" text-anchor="middle" style="white-space: pre;" direction="ltr" dominant-baseline="alphabetic">Javascript</text></g><g stroke-linecap="round"><g transform="translate(422.25246976777703 294.97609083720135) rotate(0 38.44120920703119 -0.13766748705305076)"><path d="M-0.63 -0.81 C12.29 -0.97, 64.47 -0.91, 77.55 -0.96 M1.24 1.37 C14.05 1.36, 64.22 0.49, 76.96 0.22" stroke="#1e1e1e" stroke-width="2" fill="none"></path></g><g transform="translate(422.25246976777703 294.97609083720135) rotate(0 38.44120920703119 -0.13766748705305076)"><path d="M53.63 9.21 C59.33 7.73, 66.62 5.56, 76.96 0.22 M53.63 9.21 C58.32 8.18, 64.85 4.8, 76.96 0.22" stroke="#1e1e1e" stroke-width="2" fill="none"></path></g><g transform="translate(422.25246976777703 294.97609083720135) rotate(0 38.44120920703119 -0.13766748705305076)"><path d="M53.31 -7.89 C59.11 -4.19, 66.49 -1.18, 76.96 0.22 M53.31 -7.89 C58.02 -4.99, 64.61 -4.44, 76.96 0.22" stroke="#1e1e1e" stroke-width="2" fill="none"></path></g></g><mask></mask><g stroke-linecap="round" transform="translate(512.3918919660191 258.96403246777345) rotate(0 74.60151672363281 35.78704833984375)"><path d="M17.89 0 C44.81 1.04, 72.59 -1.36, 131.31 0 M17.89 0 C46.53 -1.43, 73.5 -1.61, 131.31 0 M131.31 0 C144.56 1.7, 148.29 5.39, 149.2 17.89 M131.31 0 C143.6 -0.16, 147.45 6.62, 149.2 17.89 M149.2 17.89 C147.45 27.74, 149.84 33.16, 149.2 53.68 M149.2 17.89 C149.16 29.32, 148.75 41.73, 149.2 53.68 M149.2 53.68 C150.14 66.43, 143.74 73.09, 131.31 71.57 M149.2 53.68 C148.52 67.59, 142.85 72.41, 131.31 71.57 M131.31 71.57 C107.23 73.83, 82.51 73.88, 17.89 71.57 M131.31 71.57 C99.53 72.28, 67.93 71.67, 17.89 71.57 M17.89 71.57 C4.3 70.88, 0.34 67.17, 0 53.68 M17.89 71.57 C5.69 70.07, 1.84 67.02, 0 53.68 M0 53.68 C-0.89 41.39, -1.48 26.22, 0 17.89 M0 53.68 C-0.07 46.63, -0.01 37.24, 0 17.89 M0 17.89 C0.63 4.77, 5.09 0.06, 17.89 0 M0 17.89 C-1.42 4.38, 3.75 2.03, 17.89 0" stroke="#1e1e1e" stroke-width="2" fill="none"></path></g><g transform="translate(536.3434681989293 282.2510808076172) rotate(0 50.649940490722656 12.5)"><text x="50.649940490722656" y="17.52" font-family="Virgil, Segoe UI Emoji" font-size="20px" fill="#1e1e1e" text-anchor="middle" style="white-space: pre;" direction="ltr" dominant-baseline="alphabetic">Typescript</text></g><g stroke-linecap="round" transform="translate(57.91701010762074 376.80677838964846) rotate(0 32.14921569824219 32.14921569824219)"><path d="M31.49 0.3 C37.4 -0.46, 44.41 2.16, 49.39 5.6 C54.37 9.03, 59.09 15.01, 61.37 20.9 C63.65 26.8, 64.54 34.88, 63.09 40.94 C61.64 47.01, 57.59 53.36, 52.68 57.31 C47.78 61.26, 40.1 64.48, 33.66 64.62 C27.22 64.77, 19.26 61.58, 14.07 58.18 C8.88 54.78, 4.5 49.84, 2.52 44.23 C0.53 38.61, 0.64 30.67, 2.14 24.48 C3.65 18.28, 5.94 10.98, 11.55 7.06 C17.15 3.14, 30.99 2.04, 35.77 0.96 C40.54 -0.11, 40.26 0.31, 40.18 0.59 M41.05 -0.42 C47.27 0.45, 53.89 5.08, 57.79 10.02 C61.7 14.95, 63.98 22.86, 64.49 29.21 C65 35.56, 64.05 42.59, 60.87 48.13 C57.68 53.66, 51.3 59.71, 45.38 62.42 C39.47 65.12, 31.66 66.12, 25.39 64.36 C19.13 62.6, 11.85 56.63, 7.79 51.86 C3.73 47.1, 1.41 41.83, 1.02 35.77 C0.63 29.71, 2.25 21.22, 5.45 15.51 C8.65 9.79, 14.5 3.82, 20.22 1.46 C25.93 -0.91, 36.3 1.49, 39.73 1.33 C43.16 1.17, 41.02 -0.03, 40.77 0.51" stroke="#1e1e1e" stroke-width="2" fill="none"></path></g><g transform="translate(78.84994471467405 400.30960411937303) rotate(0 10.983352661132812 8.413461538461519)"><text x="10.983352661132812" y="11.792307692307682" font-family="Virgil, Segoe UI Emoji" font-size="13.46153846153845px" fill="#1e1e1e" text-anchor="middle" style="white-space: pre;" direction="ltr" dominant-baseline="alphabetic">Vue</text></g><g stroke-linecap="round" transform="translate(52.2688320070348 274.1268314902344) rotate(0 36.21873474121094 36.21873474121094)"><path d="M46.3 2.21 C52.9 3.67, 60.34 9.15, 64.56 14.51 C68.78 19.88, 71.17 27.4, 71.63 34.41 C72.1 41.41, 71.19 50.46, 67.36 56.54 C63.52 62.63, 55.55 68.55, 48.61 70.94 C41.67 73.32, 32.63 72.73, 25.72 70.83 C18.82 68.93, 11.53 65.12, 7.18 59.52 C2.82 53.93, -0.26 44.48, -0.42 37.25 C-0.58 30.03, 2.29 22.05, 6.2 16.18 C10.11 10.32, 15.73 4.15, 23.05 2.07 C30.37 -0.01, 44.89 2.84, 50.1 3.7 C55.32 4.56, 54.28 6.63, 54.32 7.23 M32.34 0.48 C38.85 -0.92, 48.52 1.33, 54.44 4.58 C60.36 7.83, 64.95 13.35, 67.85 20.01 C70.75 26.66, 72.88 37.43, 71.84 44.49 C70.8 51.56, 67.12 58.01, 61.63 62.4 C56.14 66.79, 46.3 70.17, 38.91 70.83 C31.52 71.5, 23.36 69.63, 17.29 66.37 C11.23 63.1, 5.01 57.54, 2.5 51.23 C0 44.92, 0.47 35.28, 2.26 28.52 C4.05 21.75, 8.48 15.4, 13.26 10.64 C18.03 5.89, 27.57 1.42, 30.91 -0.03 C34.25 -1.48, 32.8 1.36, 33.29 1.95" stroke="#1e1e1e" stroke-width="2" fill="none"></path></g><g transform="translate(72.3688827251957 303.4712900923516) rotate(0 16.00817108154297 6.763763197586712)"><text x="16.00817108154297" y="9.480090497737544" font-family="Virgil, Segoe UI Emoji" font-size="10.822021116138748px" fill="#1e1e1e" text-anchor="middle" style="white-space: pre;" direction="ltr" dominant-baseline="alphabetic">React</text></g><g stroke-linecap="round"><g transform="translate(137.91237143574574 310.57762189550783) rotate(0 58.277313232421875 -10.472824096679688)"><path d="M0.14 0.31 C19.83 -2.95, 97.67 -16.85, 117.06 -20.23 M-1.25 -0.58 C18.42 -4.12, 96.89 -18.44, 116.37 -21.97" stroke="#1e1e1e" stroke-width="2" fill="none"></path></g></g><mask></mask><g stroke-linecap="round"><g transform="translate(129.51393393574574 404.86586042089846) rotate(0 75.73202514648438 -35.40740966796875)"><path d="M-0.56 0.3 C24.83 -11.25, 126.58 -58.56, 152.07 -70.41 M1.35 -0.59 C26.66 -12.41, 126.31 -60.84, 151.44 -72.32" stroke="#1e1e1e" stroke-width="2" fill="none"></path></g></g><mask></mask><g stroke-linecap="round" transform="translate(229.40870932637074 480.30812116308596) rotate(0 99.32565307617188 30)"><path d="M15 0 C52.05 -1.89, 89.86 -3.09, 183.65 0 M15 0 C81.49 0.5, 146.29 -0.26, 183.65 0 M183.65 0 C192.9 -1.55, 197.38 6.99, 198.65 15 M183.65 0 C193.81 -2.2, 198.14 4.09, 198.65 15 M198.65 15 C197.56 28.3, 198.06 36.41, 198.65 45 M198.65 15 C197.91 23.72, 198.21 32.1, 198.65 45 M198.65 45 C198.72 55.63, 193.95 58.31, 183.65 60 M198.65 45 C200.81 53.05, 194.12 59.79, 183.65 60 M183.65 60 C136.27 62.51, 89.48 59.2, 15 60 M183.65 60 C141.55 60.06, 96.99 58.91, 15 60 M15 60 C5.37 59.2, 1.84 54.24, 0 45 M15 60 C4.14 61.09, -2.04 54.7, 0 45 M0 45 C0.08 36.91, 2.26 25.76, 0 15 M0 45 C0.22 39.02, 0.14 33.27, 0 15 M0 15 C0.55 4.01, 5.14 1.51, 15 0 M0 15 C1.09 3.95, 6.26 1.04, 15 0" stroke="#1e1e1e" stroke-width="2" fill="none"></path></g><g transform="translate(239.96441916523793 497.80812116308596) rotate(0 88.76994323730469 12.5)"><text x="88.76994323730469" y="17.52" font-family="Virgil, Segoe UI Emoji" font-size="20px" fill="#1e1e1e" text-anchor="middle" style="white-space: pre;" direction="ltr" dominant-baseline="alphabetic">Basic &amp; Advanced</text></g><g stroke-linecap="round"><g transform="translate(341.98925652411515 341.27078008496096) rotate(0 -1.5621934932594002 66.0443053046875)"><path d="M-1.01 0.49 C-1.9 22.53, -4 110.78, -4.27 132.54 M0.66 -0.29 C0.03 21.35, -1.53 108.63, -2.16 130.65" stroke="#1e1e1e" stroke-width="2" fill="none"></path></g><g transform="translate(341.98925652411515 341.27078008496096) rotate(0 -1.5621934932594002 66.0443053046875)"><path d="M6.92 24.2 C4.6 13.01, 1.44 6.56, -1.01 0.49 M6.92 24.2 C4.8 18.76, 2.83 14.17, -1.01 0.49" stroke="#1e1e1e" stroke-width="2" fill="none"></path></g><g transform="translate(341.98925652411515 341.27078008496096) rotate(0 -1.5621934932594002 66.0443053046875)"><path d="M-10.18 23.75 C-5.85 12.87, -2.36 6.6, -1.01 0.49 M-10.18 23.75 C-8.62 18.39, -6.93 13.9, -1.01 0.49" stroke="#1e1e1e" stroke-width="2" fill="none"></path></g><g transform="translate(341.98925652411515 341.27078008496096) rotate(0 -1.5621934932594002 66.0443053046875)"><path d="M-10.18 106.97 C-6.18 114.34, -3.13 126.32, -2.16 130.65 M-10.18 106.97 C-8.76 111.68, -7.32 117.25, -2.16 130.65" stroke="#1e1e1e" stroke-width="2" fill="none"></path></g><g transform="translate(341.98925652411515 341.27078008496096) rotate(0 -1.5621934932594002 66.0443053046875)"><path d="M6.92 107.36 C4.27 114.43, 0.66 126.26, -2.16 130.65 M6.92 107.36 C4.67 112, 2.45 117.49, -2.16 130.65" stroke="#1e1e1e" stroke-width="2" fill="none"></path></g></g><mask></mask><g stroke-linecap="round" transform="translate(541.4121272951207 110.12599225683594) rotate(0 42.1195068359375 37.6165771484375)"><path d="M50.18 1.06 C57.4 2.1, 66.55 7.12, 72.14 11.79 C77.73 16.46, 82.03 22.72, 83.7 29.06 C85.37 35.41, 84.85 43.31, 82.17 49.84 C79.49 56.38, 73.74 64.07, 67.62 68.3 C61.49 72.52, 53.09 74.76, 45.42 75.18 C37.76 75.6, 28.3 74.16, 21.64 70.81 C14.98 67.46, 9.12 61.17, 5.47 55.06 C1.81 48.95, -0.69 40.93, -0.31 34.15 C0.06 27.38, 3.03 19.86, 7.71 14.41 C12.4 8.95, 19.18 3.16, 27.82 1.41 C36.46 -0.35, 52.91 2.8, 59.56 3.88 C66.21 4.97, 68.07 7.45, 67.7 7.9 M24.38 3.5 C30.26 0.2, 38.62 -1.16, 46.17 -0.45 C53.72 0.26, 63.59 3.28, 69.66 7.73 C75.73 12.18, 80.45 19.49, 82.61 26.25 C84.78 33, 84.5 41.84, 82.64 48.27 C80.78 54.71, 76.76 60.54, 71.43 64.85 C66.1 69.16, 58.29 72.89, 50.68 74.15 C43.07 75.41, 32.8 74.93, 25.74 72.41 C18.69 69.89, 12.46 64.86, 8.35 59.01 C4.24 53.17, 1.4 44.26, 1.08 37.36 C0.77 30.47, 2.47 23.22, 6.46 17.64 C10.45 12.07, 22.29 6.28, 25.01 3.91 C27.73 1.54, 22.83 2.95, 22.78 3.42" stroke="#1e1e1e" stroke-width="2" fill="none"></path></g><g transform="translate(560.8586687256688 135.14363261858637) rotate(0 22.889976501464844 12.5)"><text x="22.889976501464844" y="17.52" font-family="Virgil, Segoe UI Emoji" font-size="20px" fill="#1e1e1e" text-anchor="middle" style="white-space: pre;" direction="ltr" dominant-baseline="alphabetic">Jest</text></g><g stroke-linecap="round"><g transform="translate(587.368243017777 193.69032331152346) rotate(0 1.831268310546875 30.11444091796875)"><path d="M-0.37 -0.01 C0.17 10.06, 3.82 51.12, 4.39 61.21 M1.63 -1.06 C1.99 8.62, 3.77 49.09, 3.83 59.6" stroke="#1e1e1e" stroke-width="2" fill="none"></path></g></g><mask></mask><g stroke-linecap="round" transform="translate(512.0487661701208 465.82301308105474) rotate(0 79.71424985409624 37.2425537109375)"><path d="M100 9.5 C112 16.93, 124.94 24.06, 139.43 28.5 M100 9.5 C115.44 15.48, 128.75 23.98, 139.43 28.5 M139.43 28.5 C161.14 36.39, 161.41 36.58, 139.43 47.5 M139.43 28.5 C158.5 38.1, 161.09 40.19, 139.43 47.5 M139.43 47.5 C129.55 53.62, 119.35 55.86, 100 64.99 M139.43 47.5 C129.04 51.68, 117.4 57.85, 100 64.99 M100 64.99 C79.32 74.44, 81.35 73.73, 60 64.99 M100 64.99 C82.26 75.54, 79.98 73.31, 60 64.99 M60 64.99 C45.51 58.87, 32.92 53.22, 20 47.5 M60 64.99 C46.62 58.92, 32.03 51.84, 20 47.5 M20 47.5 C-1.65 36.64, 1.01 38.08, 20 28.5 M20 47.5 C1.68 36.41, -1.42 40.08, 20 28.5 M20 28.5 C31.37 22.63, 40.96 19.54, 60 9.5 M20 28.5 C31.32 23.94, 42.12 17.26, 60 9.5 M60 9.5 C80.55 0.35, 78.54 -1.14, 100 9.5 M60 9.5 C79.57 -1.85, 80.66 -1.75, 100 9.5" stroke="#1e1e1e" stroke-width="2" fill="none"></path></g><g transform="translate(557.482093489747 494.10590609813966) rotate(0 34.423797607421875 8.838383838383834)"><text x="34.423797607421875" y="12.38787878787879" font-family="Virgil, Segoe UI Emoji" font-size="14.141414141414145px" fill="#1e1e1e" text-anchor="middle" style="white-space: pre;" direction="ltr" dominant-baseline="alphabetic">Algorithom</text></g><g stroke-linecap="round"><g transform="translate(563.3053157716832 476.06861920996096) rotate(0 -98.68585205078125 -67.35052490234375)"><path d="M0.18 -0.23 C-2.19 -2.7, -4.53 -10.46, -14.2 -14.34 C-23.86 -18.23, -38.46 -10.84, -57.83 -23.53 C-77.19 -36.23, -110.52 -74.79, -130.4 -90.52 C-150.28 -106.24, -166.12 -110.4, -177.1 -117.87 C-188.08 -125.34, -193.02 -132.55, -196.28 -135.33 M-1.18 -1.4 C-3.68 -3.71, -5.37 -9.29, -14.91 -12.86 C-24.44 -16.43, -39.25 -10.04, -58.4 -22.82 C-77.55 -35.59, -109.78 -73.74, -129.82 -89.5 C-149.85 -105.27, -167.26 -110.14, -178.61 -117.4 C-189.97 -124.65, -195.12 -129.98, -197.95 -133.05" stroke="#1e1e1e" stroke-width="2" fill="none"></path></g></g><mask></mask><g stroke-linecap="round"><g transform="translate(640.0977966662144 476.9293211865234) rotate(0 5.9749755859375 -67.97332763671875)"><path d="M0.95 -1.16 C1.8 -2.89, 2.86 -5.24, 4.48 -10.11 C6.1 -14.98, 9.32 -24.16, 10.68 -30.4 C12.05 -36.65, 13.78 -39.64, 12.65 -47.58 C11.53 -55.52, 6.22 -63.47, 3.91 -78.05 C1.6 -92.62, -0.32 -125.46, -1.22 -135.04 M-0.01 0.84 C0.76 -1.24, 2.02 -6.78, 3.71 -11.76 C5.4 -16.73, 8.62 -22.69, 10.15 -29.01 C11.67 -35.33, 14.19 -41.55, 12.88 -49.68 C11.58 -57.82, 4.48 -63.49, 2.32 -77.81 C0.16 -92.13, 0.54 -125.8, -0.07 -135.6" stroke="#1e1e1e" stroke-width="2" fill="none"></path></g></g><mask></mask><g transform="translate(270.9839961916051 392.87489362402346) rotate(0 28.749969482421875 12.5)"><text x="28.749969482421875" y="17.52" font-family="Virgil, Segoe UI Emoji" font-size="20px" fill="#1e1e1e" text-anchor="middle" style="white-space: pre;" direction="ltr" dominant-baseline="alphabetic">review</text></g><g stroke-linecap="round" transform="translate(633.7721728029333 109.26773128417972) rotate(0 37.705092895659504 38.04570775976562)"><path d="M44.9 1.22 C51.62 2.16, 59.65 7.68, 64.77 12.98 C69.88 18.27, 74.55 25.79, 75.62 32.99 C76.68 40.19, 74.71 49.61, 71.17 56.18 C67.63 62.76, 61.24 69.36, 54.38 72.45 C47.53 75.54, 37.52 76.13, 30.03 74.75 C22.54 73.37, 14.38 69.45, 9.44 64.18 C4.51 58.91, 1.08 50.77, 0.41 43.14 C-0.26 35.51, 1.91 25.14, 5.44 18.4 C8.97 11.66, 14.87 5.69, 21.6 2.71 C28.32 -0.27, 41.41 0.51, 45.8 0.51 C50.19 0.51, 47.81 2.15, 47.93 2.7 M51.07 1.59 C57.84 3.66, 64.28 10.12, 68.09 16.46 C71.9 22.79, 73.83 32.12, 73.93 39.61 C74.02 47.1, 72.81 55.82, 68.64 61.38 C64.48 66.95, 56.02 70.78, 48.94 73 C41.86 75.21, 33.21 77.09, 26.17 74.67 C19.14 72.24, 11.3 64.72, 6.73 58.46 C2.15 52.19, -1.4 44.54, -1.29 37.09 C-1.18 29.64, 2.78 19.65, 7.37 13.75 C11.96 7.85, 18.9 3.67, 26.24 1.69 C33.57 -0.29, 47.67 1.91, 51.35 1.85 C55.03 1.78, 48.8 0.54, 48.33 1.31" stroke="#1e1e1e" stroke-width="2" fill="none"></path></g><g transform="translate(651.4662286339321 139.0126235919734) rotate(0 19.849510192871094 8.3984375)"><text x="19.849510192871094" y="11.77125" font-family="Virgil, Segoe UI Emoji" font-size="13.4375px" fill="#1e1e1e" text-anchor="middle" style="white-space: pre;" direction="ltr" dominant-baseline="alphabetic">Vitest</text></g><g stroke-linecap="round"><g transform="translate(669.6600520998082 190.67686505957033) rotate(0 -19.940643310546875 32.963104248046875)"><path d="M0.26 -0.3 C-6.44 10.58, -33.8 54.71, -40.59 65.95 M-1.07 -1.51 C-7.34 9.53, -31.5 56.34, -38.25 67.49" stroke="#1e1e1e" stroke-width="2" fill="none"></path></g></g><mask></mask><g stroke-linecap="round" transform="translate(63.78121088691759 162.83053780371097) rotate(0 33.42114145019532 29.79995091176417)"><path d="M19.88 1.92 C26.04 -0.84, 36.64 -0.11, 43.61 1.87 C50.58 3.85, 57.92 8.71, 61.7 13.79 C65.49 18.88, 67.24 26.08, 66.34 32.38 C65.44 38.68, 61.46 47.03, 56.33 51.58 C51.19 56.12, 42.6 59.26, 35.51 59.66 C28.43 60.06, 19.42 57.68, 13.81 54 C8.2 50.31, 3.58 43.82, 1.85 37.57 C0.13 31.31, -0.89 22.57, 3.44 16.44 C7.77 10.31, 22.46 3.37, 27.82 0.77 C33.17 -1.84, 35.65 0.47, 35.59 0.81 M43.78 1.7 C50.5 2.78, 57.33 7, 60.92 12.43 C64.52 17.86, 65.91 27.74, 65.34 34.3 C64.78 40.87, 62.73 47.65, 57.53 51.81 C52.33 55.98, 41.42 58.8, 34.14 59.29 C26.86 59.77, 19.4 58.37, 13.85 54.73 C8.31 51.09, 2.81 43.63, 0.88 37.44 C-1.04 31.25, -0.95 23.44, 2.32 17.6 C5.59 11.75, 13.77 4.91, 20.52 2.38 C27.28 -0.15, 39.11 2.66, 42.87 2.43 C46.62 2.19, 43.01 0.42, 43.05 0.95" stroke="#1e1e1e" stroke-width="2" fill="none"></path></g><g transform="translate(86.90022151920843 184.44470625902113) rotate(0 10.169815063476562 8.114035087719301)"><text x="10.169815063476562" y="11.372631578947365" font-family="Virgil, Segoe UI Emoji" font-size="12.982456140350875px" fill="#1e1e1e" text-anchor="middle" style="white-space: pre;" direction="ltr" dominant-baseline="alphabetic">svg</text></g><g stroke-linecap="round" transform="translate(137.54719881074573 10) rotate(0 244.0519711386719 17.5)"><path d="M8.75 0 C117.91 -1.02, 225.47 -1.04, 479.35 0 M8.75 0 C131.41 -0.73, 252.78 -1.14, 479.35 0 M479.35 0 C485.53 -1.73, 489.23 4.02, 488.1 8.75 M479.35 0 C485.94 0.15, 489.41 2.56, 488.1 8.75 M488.1 8.75 C486.43 16.42, 487.05 21.69, 488.1 26.25 M488.1 8.75 C487.79 13.46, 488.52 16.92, 488.1 26.25 M488.1 26.25 C486.79 31.8, 487.17 36.74, 479.35 35 M488.1 26.25 C486.76 32.46, 483.96 33.35, 479.35 35 M479.35 35 C337.49 33.28, 194.22 33.61, 8.75 35 M479.35 35 C349.33 35.86, 218.6 36.27, 8.75 35 M8.75 35 C4.5 36.41, 1.03 31.79, 0 26.25 M8.75 35 C2.89 35.64, -2.11 31.21, 0 26.25 M0 26.25 C0.91 23.49, 0.55 16.53, 0 8.75 M0 26.25 C-0.78 22.54, 0.24 19.89, 0 8.75 M0 8.75 C1.83 4.72, 2.33 1.37, 8.75 0 M0 8.75 C1.32 2.34, 2.09 1.44, 8.75 0" stroke="#1e1e1e" stroke-width="2" fill="none"></path></g><g transform="translate(343.09920046699574 15) rotate(0 38.499969482421875 12.5)"><text x="38.499969482421875" y="17.52" font-family="Virgil, Segoe UI Emoji" font-size="20px" fill="#1e1e1e" text-anchor="middle" style="white-space: pre;" direction="ltr" dominant-baseline="alphabetic">With Lib</text></g><g stroke-linecap="round" transform="translate(137.54719850019882 60.06299543261719) rotate(0 244.05197113867186 17.5)"><path d="M8.75 0 C139.45 -1.66, 268.56 -1.01, 479.35 0 M8.75 0 C113.61 -2.16, 219.23 -2.01, 479.35 0 M479.35 0 C484.1 1.37, 486.39 1.12, 488.1 8.75 M479.35 0 C484.68 1.04, 488.45 3.41, 488.1 8.75 M488.1 8.75 C486.79 11.29, 487.92 17.79, 488.1 26.25 M488.1 8.75 C488.98 12.46, 488.14 17.48, 488.1 26.25 M488.1 26.25 C487.74 33.79, 486.94 35.45, 479.35 35 M488.1 26.25 C490.03 30.14, 485.77 36.14, 479.35 35 M479.35 35 C352.24 37.55, 226.59 37.46, 8.75 35 M479.35 35 C341.08 33.87, 202.85 33.86, 8.75 35 M8.75 35 C4.09 35.36, 0.01 31.82, 0 26.25 M8.75 35 C2.64 36.23, -0.56 30.12, 0 26.25 M0 26.25 C1.37 17.67, 1.37 13.63, 0 8.75 M0 26.25 C-0.72 20.75, -0.81 15.52, 0 8.75 M0 8.75 C0.41 4.6, 1.28 0.28, 8.75 0 M0 8.75 C-1.17 4.94, 5.1 2.03, 8.75 0" stroke="#1e1e1e" stroke-width="2" fill="none"></path></g><g transform="translate(301.5792416603551 65.06299543261719) rotate(0 80.01992797851562 12.5)"><text x="80.01992797851562" y="17.52" font-family="Virgil, Segoe UI Emoji" font-size="20px" fill="#1e1e1e" text-anchor="middle" style="white-space: pre;" direction="ltr" dominant-baseline="alphabetic">Design Patterns</text></g><g stroke-linecap="round"><g transform="translate(634.609942236527 75.83781476660157) rotate(0 66.12966918945312 207.5753936767578)"><path d="M0.92 0.15 C11.02 -0.5, 41.42 -4.42, 59.68 -3.26 C77.93 -2.11, 98.21 -4.65, 110.46 7.07 C122.71 18.79, 130.06 30.02, 133.15 67.08 C136.25 104.14, 145.39 170.94, 129.03 229.41 C112.68 287.88, 50.64 386.55, 35.05 417.92 M-0.05 -0.82 C10.02 -1.31, 40.81 -2.74, 59.08 -1.73 C77.35 -0.72, 97.11 -6.38, 109.57 5.23 C122.04 16.84, 130.88 30.45, 133.87 67.93 C136.86 105.42, 143.8 172.02, 127.48 230.14 C111.16 288.25, 51.24 385.05, 35.96 416.63" stroke="#1e1e1e" stroke-width="2" fill="none"></path></g><g transform="translate(634.609942236527 75.83781476660157) rotate(0 66.12966918945312 207.5753936767578)"><path d="M23.63 -10.31 C18.84 -6.68, 13.5 -5.84, 0.92 0.15 M23.63 -10.31 C14.94 -5.89, 5.64 -2.85, 0.92 0.15" stroke="#1e1e1e" stroke-width="2" fill="none"></path></g><g transform="translate(634.609942236527 75.83781476660157) rotate(0 66.12966918945312 207.5753936767578)"><path d="M25.04 6.73 C19.85 6.55, 14.19 3.58, 0.92 0.15 M25.04 6.73 C15.69 4.67, 5.85 1.22, 0.92 0.15" stroke="#1e1e1e" stroke-width="2" fill="none"></path></g><g transform="translate(634.609942236527 75.83781476660157) rotate(0 66.12966918945312 207.5753936767578)"><path d="M39.63 391.9 C39.18 398.58, 38.1 402.62, 35.96 416.63 M39.63 391.9 C38.29 401.83, 36.23 410.3, 35.96 416.63" stroke="#1e1e1e" stroke-width="2" fill="none"></path></g><g transform="translate(634.609942236527 75.83781476660157) rotate(0 66.12966918945312 207.5753936767578)"><path d="M54.67 400.05 C50.81 405.02, 46.36 407.23, 35.96 416.63 M54.67 400.05 C47.54 406.82, 39.76 412.19, 35.96 416.63" stroke="#1e1e1e" stroke-width="2" fill="none"></path></g></g><mask></mask><g stroke-linecap="round"><g transform="translate(50.18298799238636 308.0127768935547) rotate(0 -7.9355621337890625 60.83929443359375)"><path d="M-0.45 0.22 C-3.5 1.31, -12.93 0.65, -17.47 5.83 C-22.01 11.01, -25.22 21.13, -27.67 31.29 C-30.12 41.45, -32.62 56.27, -32.16 66.8 C-31.69 77.32, -27.58 86.87, -24.9 94.45 C-22.21 102.03, -20.57 108.11, -16.03 112.28 C-11.5 116.45, -3.06 117.87, 2.31 119.48 C7.69 121.08, 14.17 121.57, 16.23 121.94 M1.51 -0.71 C-1.26 0.62, -10.93 2.18, -15.38 7.23 C-19.83 12.27, -22.38 19.49, -25.21 29.57 C-28.03 39.65, -32.68 56.87, -32.34 67.72 C-32 78.56, -26.15 86.86, -23.17 94.65 C-20.2 102.44, -18.76 110.52, -14.49 114.46 C-10.22 118.39, -2.55 117.04, 2.46 118.25 C7.48 119.47, 13.31 121.4, 15.61 121.74" stroke="#1e1e1e" stroke-width="2" fill="none"></path></g></g><mask></mask><g stroke-linecap="round"><g transform="translate(18.78035239277699 359.50184674902346) rotate(0 53.9334716796875 -158.22109985351562)"><path d="M-1.04 0.76 C-2.05 -1.49, -4.48 -6.64, -5.56 -14.1 C-6.65 -21.56, -8.22 -25.93, -7.56 -43.99 C-6.91 -62.05, -8.18 -91.01, -1.65 -122.45 C4.89 -153.9, 21.24 -206.48, 31.62 -232.64 C42 -258.81, 46.78 -265.41, 60.63 -279.43 C74.48 -293.45, 105.7 -310.63, 114.71 -316.74 M0.61 0.11 C-0.53 -1.96, -4.6 -5.78, -6.13 -13 C-7.66 -20.22, -9.39 -25.06, -8.57 -43.21 C-7.75 -61.37, -7.75 -90.48, -1.21 -121.93 C5.34 -153.39, 20.73 -205.58, 30.72 -231.93 C40.7 -258.28, 44.61 -265.67, 58.69 -280.05 C72.78 -294.44, 106.07 -312.21, 115.22 -318.25" stroke="#1e1e1e" stroke-width="2" fill="none"></path></g></g><mask></mask><g stroke-linecap="round" transform="translate(138.22933808808943 160.34431580371097) rotate(0 35.66042086618819 32.28617250000005)"><path d="M45.51 1.44 C52.12 2.57, 60.66 7.28, 64.79 12.28 C68.93 17.28, 70.29 25.22, 70.35 31.44 C70.4 37.65, 69.04 44.3, 65.12 49.56 C61.19 54.83, 53.29 60.72, 46.79 63.03 C40.29 65.35, 32.64 65.25, 26.11 63.45 C19.58 61.65, 12.03 57.23, 7.63 52.21 C3.24 47.19, 0.14 39.61, -0.27 33.33 C-0.68 27.06, 1.24 19.89, 5.18 14.57 C9.12 9.26, 16.03 3.54, 23.35 1.45 C30.68 -0.64, 44.41 1.78, 49.13 2.03 C53.85 2.28, 51.88 2.28, 51.65 2.94 M24.53 2.07 C30.71 0.02, 42.12 0.94, 48.95 2.85 C55.78 4.77, 61.91 8.65, 65.52 13.58 C69.14 18.51, 71.14 25.96, 70.64 32.42 C70.14 38.87, 66.59 47.26, 62.53 52.31 C58.47 57.35, 52.57 60.89, 46.29 62.66 C40.01 64.44, 31.48 64.86, 24.85 62.96 C18.23 61.06, 10.69 56.42, 6.51 51.24 C2.34 46.07, -0.63 38.32, -0.22 31.89 C0.2 25.47, 4.7 17.86, 9.01 12.69 C13.31 7.53, 22.7 2.64, 25.61 0.91 C28.53 -0.81, 26.17 1.97, 26.51 2.34" stroke="#1e1e1e" stroke-width="2" fill="none"></path></g><g transform="translate(156.29415835672427 185.10840909809468) rotate(0 17.37987518310547 7.692307692307693)"><text x="17.37987518310547" y="10.78153846153846" font-family="Virgil, Segoe UI Emoji" font-size="12.307692307692305px" fill="#1e1e1e" text-anchor="middle" style="white-space: pre;" direction="ltr" dominant-baseline="alphabetic">canva</text></g><g stroke-linecap="round" transform="translate(219.3070163390888 160.34431574511714) rotate(0 35.660420866188204 32.28617250000004)"><path d="M36 -0.88 C42.46 -1.15, 51.5 1.91, 57.03 6.01 C62.55 10.12, 67.08 17.41, 69.14 23.75 C71.19 30.1, 71.71 38.12, 69.34 44.07 C66.97 50.02, 60.72 55.99, 54.93 59.45 C49.13 62.91, 41.46 64.96, 34.59 64.83 C27.73 64.7, 19.41 62.72, 13.75 58.65 C8.1 54.57, 2.52 46.43, 0.68 40.39 C-1.16 34.34, 0.21 28.09, 2.74 22.37 C5.26 16.65, 8.39 9.56, 15.83 6.08 C23.27 2.6, 40.92 1.65, 47.4 1.51 C53.87 1.38, 54.87 4.67, 54.67 5.28 M17.44 3.03 C22.84 -0.61, 32.73 -2.3, 39.75 -1.07 C46.76 0.15, 54.19 6, 59.51 10.39 C64.83 14.79, 70.48 19.34, 71.67 25.29 C72.87 31.25, 69.6 40.09, 66.67 46.11 C63.73 52.13, 60.13 58.17, 54.07 61.41 C48.01 64.65, 37.56 66.33, 30.3 65.56 C23.05 64.78, 15.65 61.11, 10.54 56.75 C5.43 52.39, 1 45.73, -0.35 39.37 C-1.7 33.02, -0.5 24.72, 2.44 18.64 C5.38 12.55, 14.47 5.36, 17.26 2.87 C20.06 0.38, 18.53 3.04, 19.21 3.7" stroke="#1e1e1e" stroke-width="2" fill="none"></path></g><g transform="translate(235.1209363391689 185.10840903950083) rotate(0 19.630775451660156 7.692307692307686)"><text x="19.630775451660156" y="10.78153846153846" font-family="Virgil, Segoe UI Emoji" font-size="12.307692307692305px" fill="#1e1e1e" text-anchor="middle" style="white-space: pre;" direction="ltr" dominant-baseline="alphabetic">events</text></g><g stroke-linecap="round" transform="translate(304.5258293390888 159.19198174511715) rotate(0 35.66042086618819 32.28617250000004)"><path d="M32.96 -0.42 C39.28 -1.33, 48.01 0.76, 53.84 4.22 C59.67 7.67, 65.25 14.45, 67.96 20.31 C70.67 26.16, 71.6 33.3, 70.12 39.35 C68.63 45.41, 64.34 52.3, 59.06 56.64 C53.77 60.99, 45.63 64.76, 38.4 65.41 C31.17 66.07, 21.73 63.97, 15.7 60.55 C9.66 57.14, 4.73 51.03, 2.18 44.91 C-0.37 38.8, -1.39 29.97, 0.4 23.87 C2.19 17.76, 6.7 12.1, 12.91 8.27 C19.11 4.44, 32.72 2.05, 37.63 0.89 C42.54 -0.27, 42.41 0.82, 42.38 1.32 M37.05 -1.18 C43.91 -1.07, 53.64 2.56, 58.94 6.77 C64.24 10.98, 67.16 17.97, 68.84 24.06 C70.52 30.16, 71.61 37.41, 69.04 43.36 C66.46 49.31, 59.41 56.01, 53.41 59.75 C47.41 63.48, 39.94 66.1, 33.04 65.78 C26.15 65.45, 17.35 61.97, 12.05 57.8 C6.75 53.63, 2.91 47.19, 1.26 40.76 C-0.38 34.32, -0.3 25.17, 2.18 19.2 C4.67 13.23, 10.27 8.09, 16.16 4.93 C22.05 1.76, 34.03 0.75, 37.53 0.21 C41.02 -0.32, 37.17 1.33, 37.13 1.71" stroke="#1e1e1e" stroke-width="2" fill="none"></path></g><g transform="translate(329.8599443464931 183.95607503950083) rotate(0 10.110580444335938 7.692307692307686)"><text x="10.110580444335938" y="10.78153846153846" font-family="Virgil, Segoe UI Emoji" font-size="12.307692307692305px" fill="#1e1e1e" text-anchor="middle" style="white-space: pre;" direction="ltr" dominant-baseline="alphabetic">......</text></g><g transform="translate(383.92800406514027 183.8030552451172) rotate(0 6.575981140136719 10)"><text x="6.575981140136719" y="14.016" font-family="Virgil, Segoe UI Emoji" font-size="16px" fill="#1e1e1e" text-anchor="middle" style="white-space: pre;" direction="ltr" dominant-baseline="alphabetic">...</text></g></svg>
